<svg width="1392" height="2360" viewBox="0 0 1392 2360" fill="none" xmlns="http://www.w3.org/2000/svg">
<rect width="400" height="2000" fill="#1C9099"/>
<rect x="496" y="500" width="400" height="1500" fill="#1C9099"/>
<rect x="992" y="1000" width="400" height="1000" fill="#1C9099"/>
<path d="M75 2356H21.75V2153.12H75V2356ZM19.3125 2100.62C19.3125 2092.38 21.9375 2085.62 27.1875 2080.38C32.4375 2075.12 39.4375 2072.5 48.1875 2072.5C56.9375 2072.5 63.9375 2075.12 69.1875 2080.38C74.4375 2085.62 77.0625 2092.38 77.0625 2100.62C77.0625 2108.75 74.4375 2115.5 69.1875 2120.88C64.0625 2126.25 57.0625 2128.94 48.1875 2128.94C39.3125 2128.94 32.25 2126.25 27 2120.88C21.875 2115.5 19.3125 2108.75 19.3125 2100.62ZM164.625 2153.12L166.125 2173.19C178.125 2157.31 193.812 2149.38 213.188 2149.38C248.062 2149.38 266 2173.81 267 2222.69V2356H213.75V2226.62C213.75 2215.12 212 2206.81 208.5 2201.69C205.125 2196.44 199.125 2193.81 190.5 2193.81C180.875 2193.81 173.375 2198.75 168 2208.62V2356H114.75V2153.12H164.625ZM394.875 2301.62C394.875 2297.12 392.688 2293 388.312 2289.25C384.062 2285.38 374.5 2280.19 359.625 2273.69C337.75 2264.81 322.688 2255.62 314.438 2246.12C306.312 2236.62 302.25 2224.81 302.25 2210.69C302.25 2192.94 308.625 2178.31 321.375 2166.81C334.25 2155.19 351.25 2149.38 372.375 2149.38C394.625 2149.38 412.438 2155.12 425.812 2166.62C439.188 2178.12 445.875 2193.56 445.875 2212.94H392.812C392.812 2196.44 385.938 2188.19 372.188 2188.19C366.562 2188.19 361.938 2189.94 358.312 2193.44C354.688 2196.94 352.875 2201.81 352.875 2208.06C352.875 2212.56 354.875 2216.56 358.875 2220.06C362.875 2223.44 372.312 2228.31 387.188 2234.69C408.812 2242.69 424.062 2251.62 432.938 2261.5C441.938 2271.25 446.438 2283.94 446.438 2299.56C446.438 2317.69 439.625 2332.25 426 2343.25C412.375 2354.25 394.5 2359.75 372.375 2359.75C357.5 2359.75 344.375 2356.88 333 2351.12C321.625 2345.25 312.688 2337.12 306.188 2326.75C299.812 2316.38 296.625 2305.19 296.625 2293.19H347.062C347.312 2302.44 349.438 2309.38 353.438 2314C357.562 2318.62 364.25 2320.94 373.5 2320.94C387.75 2320.94 394.875 2314.5 394.875 2301.62ZM579.188 2337.44C568.188 2352.31 553.438 2359.75 534.938 2359.75C516.312 2359.75 502.188 2353.38 492.562 2340.62C482.938 2327.75 478.125 2309.06 478.125 2284.56V2153.12H531.188V2285.88C531.438 2305.62 538 2315.5 550.875 2315.5C563 2315.5 571.75 2310.25 577.125 2299.75V2153.12H630.562V2356H580.688L579.188 2337.44ZM768.562 2204.31L750.938 2202.81C736.438 2202.81 726.625 2209.19 721.5 2221.94V2356H668.25V2153.12H718.312L719.812 2175.06C728.188 2157.94 739.75 2149.38 754.5 2149.38C760.5 2149.38 765.375 2150.19 769.125 2151.81L768.562 2204.31ZM874.125 2359.75C846.875 2359.75 825.625 2351.62 810.375 2335.38C795.125 2319.12 787.5 2295.88 787.5 2265.62V2249.5C787.5 2217.5 794.5 2192.81 808.5 2175.44C822.5 2158.06 842.562 2149.38 868.688 2149.38C894.188 2149.38 913.375 2157.56 926.25 2173.94C939.125 2190.19 945.688 2214.31 945.938 2246.31V2272.38H840.375C841.125 2287.38 844.438 2298.38 850.312 2305.38C856.188 2312.25 865.25 2315.69 877.5 2315.69C895.25 2315.69 910.062 2309.62 921.938 2297.5L942.75 2329.56C936.25 2338.56 926.812 2345.88 914.438 2351.5C902.062 2357 888.625 2359.75 874.125 2359.75ZM840.75 2235.25H893.812V2230.38C893.562 2218.25 891.562 2209.06 887.812 2202.81C884.062 2196.56 877.562 2193.44 868.312 2193.44C859.062 2193.44 852.312 2196.75 848.062 2203.38C843.938 2210 841.5 2220.62 840.75 2235.25ZM980.25 2329C980.25 2320.5 983.062 2313.5 988.688 2308C994.438 2302.5 1001.88 2299.75 1011 2299.75C1019.88 2299.75 1027.25 2302.5 1033.12 2308C1039 2313.38 1041.94 2320.38 1041.94 2329C1041.94 2337.75 1038.94 2344.81 1032.94 2350.19C1027.06 2355.44 1019.75 2358.06 1011 2358.06C1002.12 2358.06 994.75 2355.38 988.875 2350C983.125 2344.62 980.25 2337.62 980.25 2329ZM1139.44 2170.94C1150.94 2156.56 1165.06 2149.38 1181.81 2149.38C1200.31 2149.38 1214.38 2155.88 1224 2168.88C1233.62 2181.88 1238.5 2201.25 1238.62 2227V2356H1185.38V2227.56C1185.38 2215.69 1183.5 2207.12 1179.75 2201.88C1176.12 2196.5 1170.19 2193.81 1161.94 2193.81C1152.31 2193.81 1144.81 2198.25 1139.44 2207.12V2356H1086.38V2068H1139.44V2170.94ZM1376.81 2204.31L1359.19 2202.81C1344.69 2202.81 1334.88 2209.19 1329.75 2221.94V2356H1276.5V2153.12H1326.56L1328.06 2175.06C1336.44 2157.94 1348 2149.38 1362.75 2149.38C1368.75 2149.38 1373.62 2150.19 1377.38 2151.81L1376.81 2204.31Z" fill="#1C9099"/>
</svg>
